<?xml version="1.0" encoding="utf-8"?>
<!DOCTYPE svg PUBLIC "-//W3C//DTD SVG 1.1//EN" "http://www.w3.org/Graphics/SVG/1.1/DTD/svg11.dtd">

<svg 
	version="1.1" 
	xmlns="http://www.w3.org/2000/svg" 
	xmlns:xlink="http://www.w3.org/1999/xlink" 
	width="64"
	height="64"
	viewBox="0 0 64 64"
	enable-background="new 0 0 64 64"
	xml:space="preserve"
	xmlns:svg="http://www.w3.org/2000/svg">
		<g>
			<path d="M33,2c7.746,0,15.028,3.017,20.505,8.494c10.138,10.137,11.31,26.396,2.74,37.849L52,52.589V44h-2v11l1,1h11v-2h-8.582   l4.292-4.293l0.092-0.106c9.211-12.247,7.972-29.667-2.883-40.521C49.064,3.225,41.28,0,33,0V2z" id="path1161" />
			<path d="M7.755,15.657L12,11.411V20h2V9l-1-1H2v2h8.582L6.29,14.293l-0.092,0.106C-3.013,26.646-1.773,44.066,9.081,54.92   C14.936,60.775,22.72,64,31,64v-2c-7.746,0-15.028-3.017-20.505-8.494C0.357,43.369-0.814,27.11,7.755,15.657z"
   id="path1163" />
		</g>
		
		<path
			fill="#000000"
			tyle="stroke-width:2.94866"
			d="m 32.895515,14.259068 -1.92847,-8.1184468 -2.487791,-1.4559942 -1.523555,2.6032287 1.92847,8.1184453 z m 7.058457,-6.3536889 2.487791,1.4559957 -3.047112,5.2064552 -2.487789,-1.455995 z m 2.333385,18.8401189 4.975582,2.911991 -1.523557,2.603229 -4.975581,-2.91199 z m 7.058458,-6.353688 1.523555,-2.603227 -2.487791,-1.455995 -8.022692,2.294465 0.964233,4.059223 z m -29.448572,-6.750267 4.97558,2.911989 -1.523555,2.603229 -4.975581,-2.911989 z m 6.34473,17.692889 2.487789,1.455994 -3.04711,5.206455 -2.487789,-1.455994 z m -9.951163,-5.823982 -1.523556,2.603227 2.48779,1.455996 8.022694,-2.294466 -0.964236,-4.059223 z M 45.778724,59.477546 36.195192,19.132927 c -0.281558,-1.185292 -1.468234,-1.879801 -2.639546,-1.54481 l -3.766654,1.077252 c -1.171314,0.334993 -1.898049,1.576732 -1.616493,2.762025 l 9.583533,40.344618 c 0.281556,1.185292 1.468233,1.879803 2.639545,1.544811 l 3.766656,-1.077252 c 1.171311,-0.334992 1.898047,-1.576732 1.616491,-2.762025 z M 33.223228,33.672803 30.330523,21.495135 l 4.011344,-1.147232 2.892706,12.177669 z" />
</svg>
