<?xml version="1.0" encoding="utf-8"?>
<!DOCTYPE svg PUBLIC "-//W3C//DTD SVG 1.1//EN" "http://www.w3.org/Graphics/SVG/1.1/DTD/svg11.dtd">

<svg 
	xmlns="http://www.w3.org/2000/svg" 
	viewBox="0 0 63 63">
	<g stroke="#000" stroke-width="2">
		<path fill="#F40" d="m20,3h24l17,17v24l-17,17h-24l-17-17v-24z"/>
		<path fill="#FFF" d="M32.3,53.9C24.5,53.9 17,53.9 17,32.9C17,13.9 20.5,17.6 22.1,19.1V15.8C22.3,13.4 28.1,13.6 28.1,15.5V12.5C28.1,9.3 34.8,9.6 34.8,11.7V15.8C35,13.5 40.2,12.6 40.4,17.1C40.4,24.1 40.3,31.7 40.2,33.9C42.9,36.9 45.9,22.3 51.1,24.9C53.5,27.4 44.4,44.6 43.4,46.4C42.4,48.1 38.2,53.9 32.3,53.9z"/>
	</g>

	<path stroke="#000" fill="none" d="M23,18V33m6-20V31m6-18V32m3,5c0,0-5,1-7,11M20,35c4-5 12-4 17-3"/>
</svg>
