<?xml version="1.0" encoding="utf-8"?>
<!DOCTYPE svg PUBLIC "-//W3C//DTD SVG 1.1//EN" "http://www.w3.org/Graphics/SVG/1.1/DTD/svg11.dtd">

<svg 
	version="1.1" 
	xmlns="http://www.w3.org/2000/svg" 
	xmlns:xlink="http://www.w3.org/1999/xlink" 
	width="12" 
	height="12" 
	viewBox="0 0 16 16">
		<path fill="#AAA" d="M9.25 7h-0.25v-3c0-1.654-1.346-3-3-3h-2c-1.654 0-3 1.346-3 3v3h-0.25c-0.412 0-0.75 0.338-0.75 0.75v7.5c0 0.412 0.338 0.75 0.75 0.75h8.5c0.412 0 0.75-0.338 0.75-0.75v-7.5c0-0.412-0.338-0.75-0.75-0.75zM3 4c0-0.551 0.449-1 1-1h2c0.551 0 1 0.449 1 1v3h-4v-3z"></path>
		<path stroke="red" stroke-width="2" d="M0,0 L16,16 M0,16 L16,0"></path>
</svg>
