<?xml version="1.0" encoding="iso-8859-1"?>
<!-- Generator: Adobe Illustrator 19.0.0, SVG Export Plug-In . SVG Version: 6.00 Build 0)  -->
<svg version="1.1" id="Layer_1" xmlns="http://www.w3.org/2000/svg" xmlns:xlink="http://www.w3.org/1999/xlink" x="0px" y="0px"
	 viewBox="0 0 512 512" style="enable-background:new 0 0 512 512;" xml:space="preserve">
<g>
	<g>
		<path d="M503.983,111.165H281.632l30.242-20.969c2.16-1.497,3.449-3.959,3.449-6.589v-67.04V8.017
			c0-4.427-3.588-8.017-8.017-8.017H200.418c-4.428,0-8.017,3.589-8.017,8.017v8.551v67.041c0,2.733,1.393,5.278,3.695,6.752
			l32.506,20.804H8.017c-4.428,0-8.017,3.589-8.017,8.017v384.802C0,508.411,3.588,512,8.017,512H256h247.983
			c4.428,0,8.017-3.589,8.017-8.017V119.182C512,114.754,508.412,111.165,503.983,111.165z M247.983,440.384H54.514v-48.1h193.47
			V440.384z M247.983,333.495H54.514v-48.1h193.47V333.495z M247.983,226.605H54.514v-48.1h193.47V226.605z M247.983,162.472H46.497
			c-4.428,0-8.017,3.589-8.017,8.017v64.134c0,4.427,3.588,8.017,8.017,8.017h201.486v26.722H46.497
			c-4.428,0-8.017,3.589-8.017,8.017v64.134c0,4.427,3.588,8.017,8.017,8.017h201.486v26.722H46.497
			c-4.428,0-8.017,3.589-8.017,8.017v64.134c0,4.427,3.588,8.017,8.017,8.017h201.486v39.549H16.033V127.198h231.95V162.472z
			 M255.822,109.55l-47.387-30.329V16.568v-0.534h90.856v0.534v62.844L255.822,109.55z M264.017,178.505h39.549v48.1h-39.549
			V178.505z M264.017,285.395h112.234v48.1H264.017V285.395z M264.017,392.284h176.367v48.1H264.017V392.284z M495.967,495.967
			h-231.95v-39.549h184.384c4.428,0,8.017-3.589,8.017-8.017v-64.134c0-4.427-3.588-8.017-8.017-8.017H264.017v-26.722h120.25
			c4.428,0,8.017-3.589,8.017-8.017v-64.134c0-4.427-3.588-8.017-8.017-8.017h-120.25v-26.722h47.566
			c4.428,0,8.017-3.589,8.017-8.017v-64.134c0-4.427-3.588-8.017-8.017-8.017h-47.566v-35.273h231.95V495.967z"/>
	</g>
</g>
<g>
</g>
<g>
</g>
<g>
</g>
<g>
</g>
<g>
</g>
<g>
</g>
<g>
</g>
<g>
</g>
<g>
</g>
<g>
</g>
<g>
</g>
<g>
</g>
<g>
</g>
<g>
</g>
<g>
</g>
</svg>
